<?xml version="1.0" encoding="UTF-8"?>
<svg width="36px" height="36px" viewBox="0 0 36 36" version="1.1" xmlns="http://www.w3.org/2000/svg" xmlns:xlink="http://www.w3.org/1999/xlink">
    <!-- Generator: sketchtool 41 (35326) - http://www.bohemiancoding.com/sketch -->
    <title>2E894DE6-D717-4E9B-9504-83E7A20D6EC7</title>
    <desc>Created with sketchtool.</desc>
    <defs></defs>
    <g id="desktop" stroke="none" stroke-width="1" fill="none" fill-rule="evenodd">
        <g id="0.1-Q&amp;A--Landing" transform="translate(-74.000000, -205.000000)">
            <g id="Group-4" transform="translate(50.000000, 82.000000)">
                <g id="question" transform="translate(24.000000, 123.000000)">
                    <g id="Group-2">
                        <g id="ic_account_circle">
                            <polygon id="Shape" points="0 0 36 0 36 36 0 36"></polygon>
                            <path d="M18,0 C8.064,0 0,8.064 0,18 C0,27.936 8.064,36 18,36 C27.936,36 36,27.936 36,18 C36,8.064 27.936,0 18,0 L18,0 Z M18,5.4 C20.988,5.4 23.4,7.812 23.4,10.8 C23.4,13.788 20.988,16.2 18,16.2 C15.012,16.2 12.6,13.788 12.6,10.8 C12.6,7.812 15.012,5.4 18,5.4 L18,5.4 Z M18,30.96 C13.5,30.96 9.522,28.656 7.2,25.164 C7.254,21.582 14.4,19.62 18,19.62 C21.582,19.62 28.746,21.582 28.8,25.164 C26.478,28.656 22.5,30.96 18,30.96 L18,30.96 Z" id="Shape" fill="#808080"></path>
                        </g>
                    </g>
                </g>
            </g>
        </g>
    </g>
</svg>
